# xmcd CD database file
#
# Track frame offsets:
#	150
#	16908
#	39053
#	60768
#	75965
#	95428
#	113465
#	134163
#	158365
#	171828
#	198273
#	214360
#	231490
#	253970
#	277525
#
# Disc length: 3879 seconds
#
# Revision: 0
# Processed by: cddbd v1.5.1PL0 Copyright (c) Steve Scherf et al.
# Submitted via: CDex 1.51
#
DISCID=b40f250f
DTITLE=omnibus - Brass PARADISE!
DYEAR=2004
DGENRE=Jazz
TTITLE0=IN THE MOOD - CHICAGO
TTITLE1=THE CHICKEN(Remix) - YOICHI MURATA SOLID BRASS
TTITLE2=OAKLAND ZONE - TOWER OF POWER
TTITLE3=I WAS BORN TO LOVE YOU - BLUE AERONAUTS ORCHESTRA
TTITLE4=SING, SING, SING - TROPICAL JAZZ BAND
TTITLE5=ホッチリホーンズ - BLACK BOTTOM BRASS BAND
TTITLE6=First Lady - SOIL and "PIMP" SESSIONS
TTITLE7=HAVE IT AWAY - Spitfunk
TTITLE8=Stomp Box - SKAPONTAS
TTITLE9=smaller - grooveline
TTITLE10=やっぱり肉を喰おう - MITSUYOSHI AZUMA and THE SWINGING BOPPERS
TTITLE11=IN THE SPACE - SPECTRUM
TTITLE12=I SHALL NOT BE MOVED - DIRTY DOZEN BRASS BAND
TTITLE13=Vamp Intro(Reprise) - BIG HORNS BEE
TTITLE14=GET IT ON - CHASE
EXTD=YEAR: 2004
EXTT0=
EXTT1=
EXTT2=
EXTT3=
EXTT4=
EXTT5=
EXTT6=
EXTT7=
EXTT8=
EXTT9=
EXTT10=
EXTT11=
EXTT12=
EXTT13=
EXTT14=
PLAYORDER=
